<svg xmlns="http://www.w3.org/2000/svg" width="1200" height="720" viewBox="0 0 1200 720">
    <defs>
        <linearGradient id="bg" x1="0" x2="1" y1="0" y2="1">
            <stop offset="0" stop-color="#0b1320" />
            <stop offset="1" stop-color="#0f1f2e" />
        </linearGradient>
        <linearGradient id="accent" x1="0" x2="1" y1="0" y2="0">
            <stop offset="0" stop-color="#2ee6a6" />
            <stop offset="1" stop-color="#6f7bff" />
        </linearGradient>
    </defs>
    <rect width="1200" height="720" rx="36" fill="url(#bg)" />
    <rect x="60" y="70" width="1080" height="580" rx="20" fill="#101a28" stroke="#1f2b3a" stroke-width="2" />
    <rect x="60" y="70" width="1080" height="44" rx="20" fill="#162235" />
    <circle cx="92" cy="92" r="7" fill="#ff5f57" />
    <circle cx="118" cy="92" r="7" fill="#febc2e" />
    <circle cx="144" cy="92" r="7" fill="#28c840" />
    <text x="600" y="98" text-anchor="middle" fill="#94a3b8" font-size="14" font-family="Menlo, Monaco, Consolas, monospace">Shell Menu Runner</text>

    <text x="110" y="170" fill="#7dd3fc" font-size="26" font-family="Menlo, Monaco, Consolas, monospace">BACKEND API</text>
    <text x="110" y="205" fill="#94a3b8" font-size="14" font-family="Menlo, Monaco, Consolas, monospace">Path: Main &gt; Services</text>
    <rect x="110" y="228" width="980" height="2" fill="#223148" />

    <g font-family="Menlo, Monaco, Consolas, monospace" font-size="18" fill="#e2e8f0">
        <text x="130" y="275">1  Run API</text>
        <text x="130" y="315">2  Run Tests</text>
        <text x="130" y="355">3  Docker Up</text>
        <text x="130" y="395">4  Migrations</text>
        <text x="130" y="435">5  Logs</text>
    </g>

    <rect x="120" y="252" width="260" height="34" rx="8" fill="url(#accent)" opacity="0.18" />
    <text x="140" y="275" fill="#7c3aed" font-size="18" font-family="Menlo, Monaco, Consolas, monospace">&gt;</text>

    <rect x="110" y="480" width="980" height="2" fill="#223148" />
    <text x="110" y="520" fill="#94a3b8" font-size="14" font-family="Menlo, Monaco, Consolas, monospace">[j/k] Move  [Space] Multi  [g] Global  [s] Settings  [e] Edit  [Enter] Run</text>
</svg>
